<svg width="157" height="25" viewBox="0 0 157 25" fill="none" xmlns="http://www.w3.org/2000/svg">
<path d="M0 24.32V22.88H0.192C0.682667 22.88 1.12 22.8267 1.504 22.72C1.90933 22.6133 2.21867 22.4 2.432 22.08C2.66667 21.7387 2.784 21.248 2.784 20.608V10.752C2.784 10.1333 2.66667 9.67467 2.432 9.376C2.21867 9.056 1.92 8.85333 1.536 8.768C1.17333 8.66133 0.757333 8.608 0.288 8.608H0.16V7.168H5.76L6.176 9.664H6.336C6.784 8.85333 7.25333 8.24533 7.744 7.84C8.256 7.43467 8.8 7.168 9.376 7.04C9.97333 6.89067 10.6133 6.816 11.296 6.816C12.9813 6.816 14.2933 7.31733 15.232 8.32C16.1707 9.30133 16.64 10.88 16.64 13.056V20.576C16.64 21.2373 16.736 21.7387 16.928 22.08C17.12 22.4 17.3867 22.6133 17.728 22.72C18.0907 22.8267 18.5067 22.88 18.976 22.88H19.136V24.32H13.12V13.408C13.12 12.0213 12.8747 10.9547 12.384 10.208C11.9147 9.44 11.0827 9.056 9.888 9.056C8.992 9.056 8.27733 9.29067 7.744 9.76C7.232 10.2293 6.85867 10.8587 6.624 11.648C6.41067 12.4373 6.304 13.28 6.304 14.176V20.768C6.304 21.3653 6.41067 21.824 6.624 22.144C6.85867 22.4427 7.15733 22.6453 7.52 22.752C7.904 22.8373 8.33067 22.88 8.8 22.88H8.928V24.32H0Z" fill="#434F40"/>
<path d="M27.4358 24.64C25.0678 24.64 23.2011 23.904 21.8358 22.432C20.4704 20.96 19.7878 18.72 19.7878 15.712C19.7878 12.704 20.4384 10.4747 21.7397 9.024C23.0411 7.552 24.9717 6.816 27.5317 6.816C29.8997 6.816 31.7664 7.552 33.1318 9.024C34.4971 10.4747 35.1798 12.704 35.1798 15.712C35.1798 18.72 34.5184 20.96 33.1958 22.432C31.8944 23.904 29.9744 24.64 27.4358 24.64ZM27.4998 22.88C28.5024 22.88 29.3024 22.6133 29.8997 22.08C30.4971 21.5467 30.9238 20.7467 31.1798 19.68C31.4358 18.592 31.5638 17.2693 31.5638 15.712C31.5638 14.1333 31.4251 12.8213 31.1478 11.776C30.8918 10.7307 30.4651 9.94133 29.8678 9.408C29.2704 8.87467 28.4704 8.608 27.4678 8.608C26.4651 8.608 25.6651 8.87467 25.0678 9.408C24.4704 9.94133 24.0438 10.7307 23.7878 11.776C23.5318 12.8213 23.4037 14.1333 23.4037 15.712C23.4037 17.2693 23.5318 18.592 23.7878 19.68C24.0651 20.7467 24.5024 21.5467 25.0998 22.08C25.6971 22.6133 26.4971 22.88 27.4998 22.88Z" fill="#434F40"/>
<path d="M41.481 24.64C40.5423 24.64 39.689 24.4587 38.921 24.096C38.1743 23.712 37.5877 23.1467 37.161 22.4C36.7343 21.632 36.521 20.6613 36.521 19.488C36.521 17.7813 37.1183 16.5227 38.313 15.712C39.5077 14.88 41.3317 14.4213 43.785 14.336L46.409 14.24V12.384C46.409 11.616 46.345 10.944 46.217 10.368C46.1103 9.792 45.865 9.344 45.481 9.024C45.097 8.68267 44.5103 8.512 43.721 8.512C42.9743 8.512 42.3983 8.66133 41.993 8.96C41.609 9.25867 41.3423 9.67467 41.193 10.208C41.065 10.72 41.001 11.3173 41.001 12C39.977 12 39.1983 11.8507 38.665 11.552C38.1317 11.232 37.865 10.6987 37.865 9.952C37.865 9.184 38.1317 8.576 38.665 8.128C39.2197 7.68 39.945 7.34933 40.841 7.136C41.7583 6.92267 42.761 6.816 43.849 6.816C45.8757 6.816 47.3903 7.232 48.393 8.064C49.417 8.896 49.929 10.3147 49.929 12.32V20.576C49.929 21.1733 49.993 21.6427 50.121 21.984C50.249 22.304 50.4623 22.5387 50.761 22.688C51.0597 22.816 51.4437 22.88 51.913 22.88H52.009V24.32H47.241L46.697 21.728H46.409C45.961 22.304 45.5237 22.816 45.097 23.264C44.6703 23.6907 44.1797 24.032 43.625 24.288C43.0703 24.5227 42.3557 24.64 41.481 24.64ZM42.505 22.56C43.3157 22.56 44.009 22.3893 44.585 22.048C45.161 21.6853 45.609 21.1733 45.929 20.512C46.249 19.8507 46.409 19.0827 46.409 18.208V15.68L44.521 15.776C43.4117 15.8187 42.537 16 41.897 16.32C41.257 16.6187 40.7983 17.0453 40.521 17.6C40.265 18.1547 40.137 18.8373 40.137 19.648C40.137 20.288 40.2223 20.832 40.393 21.28C40.5637 21.7067 40.8197 22.0267 41.161 22.24C41.5237 22.4533 41.9717 22.56 42.505 22.56Z" fill="#434F40"/>
<path d="M51.9848 24.32V22.88H52.1768C52.6674 22.88 53.1048 22.8267 53.4888 22.72C53.8728 22.6133 54.1821 22.4 54.4168 22.08C54.6514 21.7387 54.7688 21.248 54.7688 20.608V3.552C54.7688 2.93333 54.6408 2.47467 54.3848 2.176C54.1501 1.87733 53.8408 1.68533 53.4568 1.6C53.0728 1.49333 52.6674 1.44 52.2408 1.44H51.9528V0H58.2888V6.56C58.2888 6.98667 58.2674 7.43467 58.2248 7.904C58.2034 8.37333 58.1821 8.77867 58.1608 9.12C58.1394 9.46133 58.1288 9.632 58.1288 9.632H58.3208C58.6621 8.94933 59.0674 8.40533 59.5368 8C60.0061 7.57333 60.5288 7.27467 61.1048 7.104C61.7021 6.912 62.3528 6.816 63.0568 6.816C64.8488 6.816 66.2248 7.31733 67.1848 8.32C68.1448 9.30133 68.6248 10.88 68.6248 13.056V20.576C68.6248 21.2373 68.7208 21.7387 68.9128 22.08C69.1261 22.4 69.4034 22.6133 69.7448 22.72C70.1074 22.8267 70.5234 22.88 70.9928 22.88H71.0888V24.32H65.1048V13.408C65.1048 12.0213 64.8594 10.9547 64.3688 10.208C63.8994 9.44 63.0568 9.056 61.8408 9.056C61.0301 9.056 60.3581 9.28 59.8248 9.728C59.2914 10.1547 58.8968 10.752 58.6408 11.52C58.4061 12.288 58.2888 13.1733 58.2888 14.176V20.768C58.2888 21.3653 58.3954 21.824 58.6088 22.144C58.8434 22.4427 59.1528 22.6453 59.5368 22.752C59.9208 22.8373 60.3474 22.88 60.8168 22.88H60.9128V24.32H51.9848Z" fill="#434F40"/>
<path d="M85.787 24.64C83.355 24.64 81.467 23.872 80.123 22.336C78.8003 20.8 78.139 18.6453 78.139 15.872C78.139 12.864 78.779 10.6027 80.059 9.088C81.339 7.57333 83.1417 6.816 85.467 6.816C87.6003 6.816 89.275 7.46667 90.491 8.768C91.7283 10.048 92.347 11.9573 92.347 14.496V16H81.755C81.7977 17.5147 81.9897 18.7627 82.331 19.744C82.6937 20.704 83.2057 21.408 83.867 21.856C84.5497 22.304 85.3817 22.528 86.363 22.528C87.1097 22.528 87.771 22.4213 88.347 22.208C88.9443 21.9733 89.4563 21.6853 89.883 21.344C90.331 20.9813 90.683 20.5973 90.939 20.192C91.131 20.2773 91.291 20.4267 91.419 20.64C91.547 20.8533 91.611 21.1093 91.611 21.408C91.611 21.8773 91.3977 22.368 90.971 22.88C90.5657 23.3707 89.9257 23.7867 89.051 24.128C88.1977 24.4693 87.1097 24.64 85.787 24.64ZM88.667 14.176C88.667 13.0667 88.5603 12.096 88.347 11.264C88.1337 10.432 87.7923 9.792 87.323 9.344C86.8537 8.87467 86.2243 8.64 85.435 8.64C84.7097 8.64 84.0803 8.85333 83.547 9.28C83.035 9.70667 82.6297 10.336 82.331 11.168C82.0537 11.9787 81.883 12.9813 81.819 14.176H88.667Z" fill="#434F40"/>
<path d="M98.8725 24.64C97.6778 24.64 96.6645 24.5013 95.8325 24.224C95.0005 23.9467 94.3605 23.552 93.9125 23.04C93.4858 22.5067 93.2725 21.8773 93.2725 21.152C93.2725 20.5333 93.4005 20.064 93.6565 19.744C93.9338 19.424 94.2432 19.2 94.5845 19.072C94.9472 18.944 95.2672 18.88 95.5445 18.88C95.5445 19.6693 95.6618 20.384 95.8965 21.024C96.1312 21.6427 96.5045 22.1333 97.0165 22.496C97.5285 22.8373 98.1898 23.008 99.0005 23.008C100.131 23.008 100.985 22.752 101.561 22.24C102.137 21.728 102.425 21.0773 102.425 20.288C102.425 19.776 102.307 19.3493 102.073 19.008C101.859 18.6667 101.465 18.336 100.889 18.016C100.334 17.6747 99.5338 17.3013 98.4885 16.896C97.3792 16.4267 96.4512 15.9573 95.7045 15.488C94.9792 15.0187 94.4352 14.4747 94.0725 13.856C93.7098 13.2373 93.5285 12.4587 93.5285 11.52C93.5285 10.0053 94.0938 8.85333 95.2245 8.064C96.3765 7.25333 97.8912 6.848 99.7685 6.848C100.878 6.848 101.795 6.98667 102.521 7.264C103.267 7.54133 103.811 7.904 104.153 8.352C104.515 8.8 104.697 9.28 104.697 9.792C104.697 10.4107 104.483 10.9013 104.057 11.264C103.63 11.6267 102.99 11.808 102.137 11.808C102.137 10.7413 101.902 9.90933 101.433 9.312C100.985 8.71467 100.291 8.416 99.3525 8.416C98.7125 8.416 98.1685 8.52267 97.7205 8.736C97.2938 8.928 96.9738 9.20533 96.7605 9.568C96.5472 9.90933 96.4405 10.3253 96.4405 10.816C96.4405 11.328 96.5685 11.7653 96.8245 12.128C97.1018 12.4907 97.5392 12.832 98.1365 13.152C98.7338 13.4507 99.5338 13.792 100.537 14.176C101.625 14.6027 102.521 15.0507 103.225 15.52C103.929 15.9893 104.451 16.544 104.793 17.184C105.155 17.8027 105.337 18.56 105.337 19.456C105.337 21.1413 104.75 22.432 103.576 23.328C102.425 24.2027 100.857 24.64 98.8725 24.64Z" fill="#434F40"/>
<path d="M112.502 24.64C110.924 24.64 109.75 24.2773 108.982 23.552C108.214 22.8053 107.83 21.504 107.83 19.648V9.088H105.43V7.712C105.878 7.712 106.348 7.616 106.839 7.424C107.329 7.232 107.745 6.95467 108.086 6.592C108.449 6.22933 108.748 5.78133 108.982 5.248C109.217 4.69333 109.409 4.02133 109.558 3.232H111.35V7.168H115.51V9.088H111.35V19.648C111.35 20.6933 111.553 21.4613 111.958 21.952C112.385 22.4427 112.972 22.688 113.718 22.688C114.102 22.688 114.454 22.6667 114.774 22.624C115.116 22.5813 115.457 22.528 115.799 22.464V24.064C115.521 24.192 115.073 24.32 114.454 24.448C113.836 24.576 113.185 24.64 112.502 24.64Z" fill="#434F40"/>
<path d="M121.148 24.64C120.21 24.64 119.357 24.4587 118.589 24.096C117.842 23.712 117.255 23.1467 116.828 22.4C116.402 21.632 116.188 20.6613 116.188 19.488C116.188 17.7813 116.786 16.5227 117.98 15.712C119.175 14.88 120.999 14.4213 123.452 14.336L126.076 14.24V12.384C126.076 11.616 126.012 10.944 125.884 10.368C125.778 9.792 125.532 9.344 125.148 9.024C124.764 8.68267 124.178 8.512 123.388 8.512C122.642 8.512 122.066 8.66133 121.66 8.96C121.276 9.25867 121.01 9.67467 120.86 10.208C120.732 10.72 120.669 11.3173 120.669 12C119.645 12 118.866 11.8507 118.332 11.552C117.799 11.232 117.533 10.6987 117.533 9.952C117.533 9.184 117.799 8.576 118.332 8.128C118.887 7.68 119.612 7.34933 120.508 7.136C121.426 6.92267 122.429 6.816 123.517 6.816C125.543 6.816 127.058 7.232 128.061 8.064C129.085 8.896 129.596 10.3147 129.596 12.32V20.576C129.596 21.1733 129.66 21.6427 129.788 21.984C129.916 22.304 130.13 22.5387 130.428 22.688C130.727 22.816 131.111 22.88 131.581 22.88H131.676V24.32H126.909L126.365 21.728H126.076C125.628 22.304 125.191 22.816 124.764 23.264C124.338 23.6907 123.847 24.032 123.293 24.288C122.738 24.5227 122.023 24.64 121.148 24.64ZM122.173 22.56C122.983 22.56 123.677 22.3893 124.253 22.048C124.829 21.6853 125.276 21.1733 125.596 20.512C125.916 19.8507 126.076 19.0827 126.076 18.208V15.68L124.188 15.776C123.079 15.8187 122.204 16 121.564 16.32C120.924 16.6187 120.466 17.0453 120.188 17.6C119.932 18.1547 119.804 18.8373 119.804 19.648C119.804 20.288 119.89 20.832 120.061 21.28C120.231 21.7067 120.487 22.0267 120.828 22.24C121.191 22.4533 121.639 22.56 122.173 22.56Z" fill="#434F40"/>
<path d="M138.756 24.64C137.178 24.64 136.004 24.2773 135.236 23.552C134.468 22.8053 134.084 21.504 134.084 19.648V9.088H131.684V7.712C132.132 7.712 132.602 7.616 133.092 7.424C133.583 7.232 133.999 6.95467 134.34 6.592C134.703 6.22933 135.002 5.78133 135.236 5.248C135.471 4.69333 135.663 4.02133 135.812 3.232H137.604V7.168H141.764V9.088H137.604V19.648C137.604 20.6933 137.807 21.4613 138.212 21.952C138.639 22.4427 139.226 22.688 139.972 22.688C140.356 22.688 140.708 22.6667 141.028 22.624C141.37 22.5813 141.711 22.528 142.052 22.464V24.064C141.775 24.192 141.327 24.32 140.708 24.448C140.09 24.576 139.439 24.64 138.756 24.64Z" fill="#434F40"/>
<path d="M150.218 24.64C147.786 24.64 145.898 23.872 144.554 22.336C143.232 20.8 142.57 18.6453 142.57 15.872C142.57 12.864 143.21 10.6027 144.49 9.088C145.77 7.57333 147.573 6.816 149.898 6.816C152.032 6.816 153.706 7.46667 154.922 8.768C156.16 10.048 156.778 11.9573 156.778 14.496V16H146.186C146.229 17.5147 146.421 18.7627 146.762 19.744C147.125 20.704 147.637 21.408 148.298 21.856C148.981 22.304 149.813 22.528 150.794 22.528C151.541 22.528 152.202 22.4213 152.778 22.208C153.376 21.9733 153.888 21.6853 154.314 21.344C154.762 20.9813 155.114 20.5973 155.37 20.192C155.562 20.2773 155.722 20.4267 155.85 20.64C155.978 20.8533 156.042 21.1093 156.042 21.408C156.042 21.8773 155.829 22.368 155.402 22.88C154.997 23.3707 154.357 23.7867 153.482 24.128C152.629 24.4693 151.541 24.64 150.218 24.64ZM153.098 14.176C153.098 13.0667 152.992 12.096 152.778 11.264C152.565 10.432 152.224 9.792 151.754 9.344C151.285 8.87467 150.656 8.64 149.866 8.64C149.141 8.64 148.512 8.85333 147.978 9.28C147.466 9.70667 147.061 10.336 146.762 11.168C146.485 11.9787 146.314 12.9813 146.25 14.176H153.098Z" fill="#434F40"/>
</svg>
